<svg  viewBox="0 0 886 981" fill="none" xmlns="http://www.w3.org/2000/svg">
<path d="M324.4 39.9999C360.8 12.7999 406.8 -1.00011 452.1 1.1999C491.9 2.8999 531.1 16.7999 562.9 40.8999C600.1 68.5999 627.1 109.7 637.6 154.9C644.7 183 642.8 212.2 643.1 240.9C695.7 240.8 748.3 240.9 800.9 240.9C829.1 487.6 857.3 734.3 885.5 981H0.5C28.7 734.3 56.9 487.6 85.1 241C137.7 240.9 190.3 240.9 243 241C243.3 212.3 241.4 183.1 248.5 155C259 109.3 286.5 67.6999 324.4 39.9999ZM356.7 66.2999C322.3 88.2999 296.8 123.9 287.5 163.7C281.1 189 283.5 215.2 283 240.9C389.7 240.9 496.3 240.9 603 240.9C602.9 224.6 603.4 208.2 602.6 191.9C600.8 155.5 585.8 120.1 561.2 93.2999C533.7 62.6999 493.8 43.5999 452.7 41.3999C419.1 39.2999 384.9 47.9999 356.7 66.2999ZM120.8 280.9C95.6 500.9 70.5 721 45.3 941C310.4 941 575.5 941 840.6 941C815.5 721 790.3 500.9 765.1 280.9C724.4 280.9 683.7 280.9 643 280.9C642.9 295.9 643 310.9 643 325.9C651.6 331.8 658.9 340.1 661.5 350.4C665.6 365.1 660.5 381.9 648.6 391.5C635.8 402.5 615.7 403.9 601.6 394.5C588.7 386.5 581.3 370.8 583.5 355.8C584.8 343.4 592.8 332.7 603 326C603 310.9 603 295.9 603 280.8C496.3 280.8 389.7 280.8 283 280.8C283 295.9 283 310.9 283 326C293.2 332.7 301.2 343.4 302.5 355.8C304.7 370.8 297.2 386.5 284.4 394.5C270.3 403.9 250.1 402.6 237.3 391.5C224.8 381.3 219.9 363.2 225.2 348C228.1 338.7 235.1 331.4 242.9 326C242.9 311 242.9 296 242.9 281C202.2 280.9 161.5 280.9 120.8 280.9Z" fill="white"/>
</svg>
